HIERARCHY
ROOT Hips
{
  OFFSET 57.8838 95.319 338.509
  CHANNELS 6 Xposition Yposition Zposition Zrotation Xrotation Yrotation
  JOINT LeftUpLeg
  {
    OFFSET 8.64259 1.95398 -2.38835
    CHANNELS 3 Zrotation Xrotation Yrotation
    JOINT LeftLeg
    {
      OFFSET 43.7702 0 0
      CHANNELS 3 Zrotation Xrotation Yrotation
      JOINT LeftFoot
      {
        OFFSET 40.6238 0 0
        CHANNELS 3 Zrotation Xrotation Yrotation
        JOINT LeftToeBase
        {
          OFFSET 12.7242 0 0
          CHANNELS 3 Zrotation Xrotation Yrotation
          End Site
          {
            OFFSET 0 0 0
          }
        }
      }
    }
  }
  JOINT RightUpLeg
  {
    OFFSET -8.2249 1.95398 -2.59336
    CHANNELS 3 Zrotation Xrotation Yrotation
    JOINT RightLeg
    {
      OFFSET 43.5653 0 0
      CHANNELS 3 Zrotation Xrotation Yrotation
      JOINT RightFoot
      {
        OFFSET 40.6238 0 0
        CHANNELS 3 Zrotation Xrotation Yrotation
        JOINT RightToeBase
        {
          OFFSET 12.7242 0 0
          CHANNELS 3 Zrotation Xrotation Yrotation
          End Site
          {
            OFFSET 0 0 0
          }
        }
      }
    }
  }
  JOINT Spine
  {
    OFFSET 0.165834 0.87714 6.61349
    CHANNELS 3 Zrotation Xrotation Yrotation
    JOINT Spine1
    {
      OFFSET 7.38963 1.71661e-005 0
      CHANNELS 3 Zrotation Xrotation Yrotation
      JOINT Spine2
      {
        OFFSET 11.9445 1.14441e-005 0
        CHANNELS 3 Zrotation Xrotation Yrotation
        JOINT Spine3
        {
          OFFSET 14.7254 4.19617e-005 0
          CHANNELS 3 Zrotation Xrotation Yrotation
          JOINT Spine4
          {
            OFFSET 10.9679 0 0
            CHANNELS 3 Zrotation Xrotation Yrotation
            JOINT RightShoulder
            {
              OFFSET 2.46616 -1.6653 3.69651
              CHANNELS 3 Zrotation Xrotation Yrotation
              JOINT RightArm
              {
                OFFSET 13.0012 0 0
                CHANNELS 3 Zrotation Xrotation Yrotation
                JOINT RightForeArm
                {
                  OFFSET 28.7848 1.62311e-005 0
                  CHANNELS 3 Zrotation Xrotation Yrotation
                  JOINT RightHand
                  {
                    OFFSET 26.5688 1.62095e-005 0
                    CHANNELS 3 Zrotation Xrotation Yrotation
                    End Site
                    {
                      OFFSET 0 0 0
                    }
                  }
                }
              }
            }
            JOINT LeftShoulder
            {
              OFFSET 2.38034 -1.29275 -3.7523
              CHANNELS 3 Zrotation Xrotation Yrotation
              JOINT LeftArm
              {
                OFFSET 16.3182 6.07031e-005 0
                CHANNELS 3 Zrotation Xrotation Yrotation
                JOINT LeftForeArm
                {
                  OFFSET 27.0901 0 0
                  CHANNELS 3 Zrotation Xrotation Yrotation
                  JOINT LeftHand
                  {
                    OFFSET 24.5451 1.51738e-005 0
                    CHANNELS 3 Zrotation Xrotation Yrotation
                    End Site
                    {
                      OFFSET 0 0 0
                    }
                  }
                }
              }
            }
            JOINT Neck
            {
              OFFSET 5.0226 -0.0266342 0
              CHANNELS 3 Zrotation Xrotation Yrotation
              JOINT Head
              {
                OFFSET 6.69364 2.86102e-005 0
                CHANNELS 3 Zrotation Xrotation Yrotation
                End Site
                {
                  OFFSET 0 0 0
                }
              }
            }
          }
        }
      }
    }
  }
}
MOTION
Frames:	12
Frame Time:	0.0416667
-2.37674 12.0063 -57.2894 174.74 0.165574 176.357 -176.14 1.95178 88.8065 -5.15506 -19.9835 -1.66637 49.9091 -14.3987 -7.87824 10.5474 -9.06853 6.02363 172.218 6.64678 86.0798 -14.1243 5.09692 -0.502614 54.9445 18.204 18.5819 16.859 16.864 -2.86182 -0.278147 5.63456 -89.757 15.6057 -0.427478 0.556532 3.93469 -0.402568 0.57479 -18.6005 -0.574975 0.402325 1.41218 -0.574974 0.402321 97.1705 -39.7422 -90.9003 39.9847 -35.7367 14.2539 1.22858 -29.2004 -11.2942 -3.23925 -0.209647 2.81324 -79.2721 -44.944 94.7505 -23.9398 -36.3294 -4.09894 -170.962 72.8282 179.982 1.17727 0.0854061 -11.1367 32.3027 7.87115 10.9184 -39.8045 5.56299 -7.84185 
-2.40308 11.9891 -57.2947 174.602 0.37997 176.434 -176.069 1.80815 88.9143 -5.24668 -19.6957 -1.6608 50.0039 -14.2471 -7.87999 10.6372 -9.09846 6.29931 172.279 6.41403 86.1849 -14.1208 4.98141 -0.553371 54.8772 18.2683 18.3894 17.0651 16.6585 -3.10455 -0.290417 5.66079 -89.7576 15.5533 -0.45218 0.558883 3.88229 -0.427144 0.578232 -18.653 -0.599242 0.39714 1.35969 -0.599241 0.397145 97.2987 -39.3715 -90.7192 40.0394 -35.1056 13.8264 1.27739 -30.3516 -10.9282 -2.79922 -0.167295 2.26042 -79.2613 -44.6956 94.7593 -24.2766 -36.3629 -4.28418 -170.82 72.7929 179.982 1.10745 0.0882455 -11.1898 32.1999 7.76187 10.7869 -39.6143 5.47151 -7.72507 
-2.46241 11.9651 -57.3117 174.457 0.328012 176.534 -175.87 2.00384 89.1221 -5.25762 -21.256 -1.72581 49.9605 -14.3543 -8.48716 8.35052 -9.86354 5.04704 172.376 6.3643 86.3777 -13.926 5.6368 -0.638739 54.795 18.3822 18.5907 16.7997 16.986 -2.97362 -0.298735 5.68342 -89.7779 15.508 -0.478952 0.521694 3.83709 -0.455521 0.54226 -18.6983 -0.613599 0.353636 1.3143 -0.613598 0.353629 97.3394 -39.3562 -90.6483 39.7673 -34.8648 13.4614 1.26526 -30.8291 -10.7544 -2.69768 -0.155565 1.94907 -79.3176 -45.0012 94.679 -24.245 -36.2305 -4.64469 -170.95 72.852 179.982 0.612333 0.111856 -11.4376 32.4847 7.80988 11.0037 -39.5287 5.36218 -7.66346 
-2.49024 11.9887 -57.2841 174.443 0.0259749 176.77 -175.665 2.31828 89.4162 -5.2974 -21.472 -1.83554 49.8037 -14.5151 -8.68473 8.24129 -9.92848 5.07902 172.677 6.35603 86.756 -13.4547 5.31367 -0.731298 54.6144 18.2398 18.22 17.0701 16.6118 -2.9894 -0.299119 5.70559 -89.8146 15.4638 -0.498211 0.450596 3.79279 -0.477892 0.472072 -18.7428 -0.610602 0.280028 1.26983 -0.610597 0.280016 97.3731 -39.407 -90.5822 39.3124 -35.4989 12.7781 1.46621 -30.2701 -10.7407 -2.66692 -0.157931 2.19756 -79.1926 -45.3935 94.8925 -24.3789 -36.1123 -5.45357 -170.976 73.1175 179.982 0.458778 0.124227 -11.4023 33.7026 8.15416 11.3078 -40.5849 5.69972 -8.23689 
-2.55497 11.9735 -57.3027 174.078 -0.0242724 176.934 -175.572 2.46287 89.6329 -5.35966 -21.4024 -1.83158 49.7942 -14.458 -8.84718 7.90351 -10.0138 4.81067 172.773 6.18427 86.9909 -13.0934 5.82413 -0.778802 54.4573 18.4058 18.2111 17.0875 16.6169 -3.07532 -0.330065 5.7632 -89.8432 15.3485 -0.574024 0.403707 3.67765 -0.555696 0.428578 -18.8584 -0.668819 0.212515 1.15431 -0.668817 0.212532 97.4661 -39.5862 -90.3954 38.4867 -35.1384 11.9584 1.32734 -30.5311 -10.7094 -2.48378 -0.143449 1.97967 -79.2061 -45.8935 94.8864 -24.4308 -35.8789 -6.33984 -171.055 73.3584 179.981 0.347269 0.12891 -11.6255 34.3182 8.25347 11.6164 -40.372 5.56337 -8.23669 
-2.58117 11.9672 -57.3102 173.873 -0.286542 177.095 -175.56 2.76787 89.7567 -5.4042 -20.9646 -1.82399 49.6739 -14.4958 -8.85332 8.40322 -9.8063 4.92252 172.951 6.32967 87.2545 -12.8659 6.57032 -0.894788 54.2333 18.6924 18.4622 16.9673 16.7722 -3.03547 -0.34442 5.81584 -89.8823 15.2434 -0.622204 0.331318 3.57259 -0.607019 0.358382 -18.9637 -0.693017 0.129004 1.04895 -0.693015 0.128996 97.5764 -39.7304 -90.1822 37.6967 -35.6778 10.9947 1.38793 -30.2275 -10.7276 -2.71231 -0.165333 2.40694 -79.1049 -46.7223 95.0723 -24.2929 -35.5695 -7.47723 -171.295 73.8602 179.979 0.241988 0.141877 -11.4861 35.3722 8.5739 12.313 -40.5497 5.62504 -8.77924 
-2.67438 12.003 -57.2902 173.511 -0.441895 177.482 -175.28 3.25945 90.2618 -5.72228 -20.6091 -1.87644 49.7103 -14.3946 -8.88778 7.98513 -9.92744 4.64475 173.215 5.97875 87.8008 -12.1333 6.82045 -0.955968 54.1741 18.4924 18.0767 16.9943 16.7149 -2.97971 -0.366932 5.89732 -89.9478 15.0802 -0.699723 0.209827 3.4094 -0.68981 0.240417 -19.1273 -0.730439 -0.0101851 0.885376 -0.730438 -0.0101786 97.5657 -39.9688 -90.1735 36.5122 -35.4545 9.76727 1.43441 -29.7763 -10.5294 -2.22075 -0.122501 1.71335 -79.0818 -47.3904 95.1274 -24.482 -35.2164 -8.80773 -171.503 74.4164 -179.978 0.0927111 0.153408 -11.5575 36.7877 8.95554 13.0025 -41.0824 5.7132 -9.33005 
-2.70596 11.9691 -57.2695 173.363 -0.712069 177.575 -175.269 3.54762 90.3805 -5.76682 -20.3788 -1.91158 49.6076 -14.4175 -9.08715 8.43657 -9.77809 4.87873 173.367 6.2129 87.9744 -12.0635 7.06638 -1.01762 54.1234 18.5018 18.1273 17.1307 16.6057 -3.22019 -0.36409 5.97539 -89.9981 14.9238 -0.719367 0.110106 3.25303 -0.713825 0.141646 -19.2837 -0.719202 -0.111204 0.728916 -0.7192 -0.111203 97.7792 -40.062 -89.7857 35.366 -35.664 8.49108 1.43655 -29.8503 -10.6216 -2.51069 -0.152935 2.49752 -79.0401 -48.9106 95.2336 -24.1214 -35.1566 -10.5169 -171.303 74.8156 179.917 0.00320357 0.159411 -11.8732 38.6265 9.71293 13.9506 -42.2938 6.21466 -10.3922 
-2.77871 12.0032 -57.28 172.961 -0.778118 177.93 -175.146 3.83751 90.7485 -5.98777 -19.5485 -1.86466 49.7122 -14.1618 -9.02821 8.6208 -9.773 5.17577 173.591 5.9036 88.4513 -11.4506 8.03302 -1.15458 53.7999 18.8198 18.2332 16.9447 16.7933 -3.0051 -0.392646 6.09023 -90.0704 14.6937 -0.811994 -0.0239444 3.02294 -0.812258 0.0118126 -19.5141 -0.767259 -0.266884 0.498599 -0.767259 -0.266901 97.8544 -40.2315 -89.6347 34.0146 -35.7954 6.94159 1.55649 -28.9122 -10.3981 -2.44591 -0.135503 1.67127 -78.9148 -49.8726 95.4494 -24.2564 -34.8092 -12.0888 -171.848 75.2884 -179.698 -0.18282 0.175434 -11.8175 40.4712 10.3542 14.8545 -43.0743 6.47671 -11.2268 
-2.82767 12.0242 -57.2613 172.934 -1.0592 178.15 -174.935 4.15979 91.0392 -6.04779 -19.5281 -1.99473 49.7477 -14.1051 -9.02622 8.36532 -9.83259 4.95074 173.727 6.00266 88.7567 -11.1813 8.19009 -1.12657 53.8367 18.621 18.1292 16.8876 16.8979 -3.07506 -0.365767 6.18647 -90.1308 14.5009 -0.788673 -0.150816 2.83014 -0.794546 -0.115954 -19.7066 -0.706888 -0.380879 0.306088 -0.706888 -0.380882 98.0315 -40.2956 -89.3158 32.6797 -35.7098 5.25818 1.80895 -28.4724 -10.1444 -2.52123 -0.135364 1.66187 -78.9765 -51.1607 95.3873 -24.0842 -34.5021 -14.0616 -171.598 75.7567 179.923 -0.0660868 0.180277 -11.6713 42.1543 10.9685 15.75 -43.7541 6.72135 -12.1039 
-2.86409 12.0097 -57.2633 172.69 -1.08481 178.264 -174.899 4.28542 91.1727 -6.13528 -19.3203 -1.96263 49.6309 -14.1625 -9.22279 8.67117 -9.73891 5.1406 173.849 5.84633 88.9449 -10.8649 8.43604 -1.20745 53.6785 18.7105 18.0491 17.1232 16.6194 -3.22929 -0.358082 6.31012 -90.1648 14.2531 -0.790216 -0.220897 2.58239 -0.799177 -0.185913 -19.9541 -0.687297 -0.44819 0.0584899 -0.687298 -0.448189 98.325 -40.0565 -88.8217 31.7032 -35.5374 3.43086 2.06744 -28.4109 -9.90179 -2.46681 -0.136021 1.80292 -79.1422 -51.807 95.1563 -24.6297 -34.2781 -15.9021 -171.425 76.1719 179.944 -0.32217 0.197009 -11.9113 43.5514 11.2487 16.3599 -43.787 6.48032 -12.28 
-2.85027 12.0014 -57.2633 172.675 -1.21244 178.214 -174.985 4.42 91.0883 -6.13387 -19.3914 -1.95884 49.665 -14.1165 -9.12224 8.66747 -9.69094 4.96237 173.859 6.09965 88.8777 -11.0658 8.59376 -1.23968 53.6472 18.9344 18.2913 16.8995 16.8569 -3.00541 -0.32943 6.43293 -90.1956 14.0072 -0.748465 -0.290972 2.33644 -0.760549 -0.25775 -20.1997 -0.626412 -0.502463 -0.187105 -0.626419 -0.502473 98.602 -39.9121 -88.3452 30.5558 -35.704 1.7095 2.14785 -28.4301 -9.83387 -2.39602 -0.13752 1.99515 -79.2003 -53.044 95.1041 -24.6277 -33.9607 -17.8927 -171.557 76.7659 179.988 -0.436242 0.213663 -11.8122 45.5697 11.9978 17.3754 -44.915 6.83081 -13.4131 
